<svg width="847" height="231" viewBox="0 0 847 231" fill="none" xmlns="http://www.w3.org/2000/svg">
<g filter="url(#filter0_d_59_81)">
<rect x="14.7906" y="15.3513" width="350" height="96" rx="24" transform="rotate(7.64196 14.7906 15.3513)" fill="white"/>
<path d="M140.52 84.921L140.841 82.5264C141.276 82.8109 141.703 83.0618 142.12 83.2792C142.538 83.4967 142.967 83.6861 143.408 83.8476C143.85 84.0037 144.306 84.1375 144.775 84.2489C145.25 84.361 145.754 84.4529 146.288 84.5245C146.711 84.5812 147.088 84.5969 147.42 84.5714C147.757 84.5467 148.045 84.4858 148.284 84.3887C148.523 84.2916 148.712 84.161 148.853 83.9969C148.993 83.8328 149.078 83.6397 149.108 83.4177C149.155 83.0688 149.049 82.7748 148.79 82.5356C148.538 82.2919 148.097 82.066 147.469 81.8579L144.662 80.9405C144.239 80.803 143.858 80.6524 143.52 80.4886C143.187 80.3255 142.893 80.1488 142.639 79.9587C142.39 79.7639 142.176 79.5549 141.996 79.3317C141.822 79.1091 141.683 78.8754 141.582 78.6303C141.48 78.3853 141.415 78.1264 141.387 77.8536C141.359 77.5808 141.365 77.2964 141.405 77.0003C141.487 76.3925 141.686 75.8703 142.003 75.4339C142.32 74.9922 142.747 74.6405 143.282 74.3787C143.818 74.1169 144.454 73.9493 145.19 73.8759C145.932 73.798 146.769 73.8214 147.699 73.9462C148.143 74.0058 148.579 74.0832 149.008 74.1783C149.442 74.2742 149.862 74.3871 150.27 74.5172C150.678 74.6419 151.071 74.7834 151.448 74.9416C151.831 75.0952 152.188 75.2589 152.52 75.4325L152.138 77.7382C151.522 77.3973 150.822 77.0989 150.039 76.8431C149.255 76.5873 148.372 76.3934 147.388 76.2615C146.992 76.2083 146.638 76.1958 146.328 76.2241C146.023 76.2478 145.763 76.307 145.545 76.4016C145.334 76.4917 145.167 76.6145 145.044 76.7702C144.921 76.9259 144.846 77.1042 144.819 77.305C144.796 77.4742 144.811 77.6268 144.862 77.7629C144.915 77.8937 145.006 78.0162 145.136 78.1305C145.266 78.2448 145.434 78.3535 145.641 78.4566C145.854 78.5551 146.107 78.6563 146.399 78.7601L149.321 79.7252C149.702 79.8517 150.051 79.9954 150.369 80.1564C150.687 80.3121 150.97 80.4873 151.219 80.6821C151.472 80.8775 151.689 81.0895 151.868 81.3181C152.053 81.542 152.198 81.7848 152.303 82.0464C152.413 82.3087 152.483 82.5872 152.513 82.8818C152.55 83.1719 152.546 83.4782 152.503 83.8006C152.42 84.4191 152.214 84.9511 151.885 85.3966C151.557 85.8422 151.114 86.1944 150.557 86.4534C150.006 86.713 149.346 86.8774 148.578 86.9466C147.809 87.021 146.944 86.9937 145.982 86.8646C145.432 86.7908 144.91 86.6938 144.415 86.5736C143.92 86.4534 143.446 86.3118 142.994 86.149C142.548 85.9868 142.118 85.8027 141.704 85.5965C141.297 85.3858 140.902 85.1606 140.52 84.921ZM157.408 88.4057C156.747 88.317 156.175 88.1273 155.692 87.8365C155.214 87.5464 154.828 87.1582 154.533 86.672C154.243 86.1811 154.053 85.5959 153.961 84.9164C153.869 84.2368 153.881 83.4636 153.998 82.5967L154.665 77.6252L157.773 78.0422L157.124 82.8789C157.05 83.4286 157.034 83.9108 157.075 84.3253C157.117 84.7345 157.219 85.0791 157.38 85.359C157.542 85.639 157.757 85.8589 158.026 86.0188C158.302 86.1741 158.632 86.2776 159.018 86.3294C159.467 86.3897 159.874 86.3689 160.237 86.267C160.6 86.1651 160.92 85.9926 161.194 85.7497C161.47 85.5014 161.695 85.1873 161.87 84.8071C162.05 84.4224 162.175 83.979 162.242 83.4768L162.879 78.7274L165.979 79.1433L164.666 88.9356L161.557 88.5186L161.754 87.0517C161.783 86.9964 161.832 86.9141 161.9 86.8049C161.975 86.6912 162.057 86.5596 162.147 86.4102C162.238 86.2556 162.333 86.0854 162.433 85.8998C162.534 85.7089 162.626 85.5059 162.709 85.291L162.511 85.2644C162.256 85.8383 161.952 86.3384 161.599 86.7645C161.251 87.1914 160.86 87.5398 160.426 87.8098C159.997 88.0751 159.528 88.2598 159.019 88.3637C158.516 88.4683 157.978 88.4823 157.408 88.4057ZM169.386 89.5689L166.286 89.153L167.547 79.7492C167.608 79.7789 167.69 79.8114 167.793 79.8467C167.895 79.882 168.012 79.9191 168.141 79.958C168.27 79.9969 168.413 80.0322 168.571 80.0641C168.728 80.0959 168.894 80.1236 169.068 80.147C169.438 80.1966 169.755 80.2177 170.02 80.2101C170.285 80.1973 170.495 80.1823 170.648 80.1652L169.386 89.5689ZM167.6 77.5527C167.653 77.1563 167.847 76.8729 168.182 76.7026C168.522 76.533 168.981 76.4869 169.557 76.5642C170.133 76.6415 170.56 76.8064 170.838 77.059C171.122 77.3123 171.237 77.6371 171.184 78.0336C171.16 78.2133 171.098 78.3718 170.999 78.5092C170.9 78.6466 170.766 78.7578 170.599 78.843C170.432 78.9229 170.231 78.9766 169.996 79.0043C169.766 79.0326 169.511 79.028 169.231 78.9904C168.946 78.9521 168.696 78.889 168.482 78.8011C168.268 78.7131 168.091 78.6087 167.951 78.4877C167.812 78.3614 167.712 78.2189 167.653 78.0603C167.593 77.9016 167.576 77.7324 167.6 77.5527ZM176.681 90.9514C175.751 90.8266 174.929 90.5926 174.217 90.2494C173.504 89.9062 172.917 89.4723 172.454 88.9475C171.992 88.4226 171.665 87.8137 171.472 87.1207C171.281 86.4223 171.241 85.6582 171.352 84.8283C171.465 83.9879 171.706 83.256 172.075 82.6329C172.443 82.0097 172.92 81.5033 173.505 81.1137C174.09 80.724 174.771 80.4602 175.549 80.3224C176.327 80.1792 177.181 80.17 178.111 80.2949C178.55 80.3537 178.959 80.4328 179.338 80.5322C179.718 80.6315 180.071 80.7488 180.397 80.8841C180.723 81.0193 181.031 81.171 181.321 81.339C181.616 81.5024 181.894 81.6769 182.155 81.8625L181.884 83.8765C181.656 83.7328 181.403 83.5939 181.125 83.4598C180.848 83.3203 180.56 83.1983 180.262 83.0938C179.965 82.9839 179.657 82.8888 179.34 82.8086C179.028 82.7237 178.719 82.6608 178.413 82.6196C177.947 82.5572 177.493 82.5554 177.049 82.6143C176.611 82.6738 176.211 82.8032 175.851 83.0024C175.496 83.2023 175.194 83.4847 174.946 83.8496C174.699 84.2092 174.538 84.6639 174.465 85.2136C174.39 85.7687 174.424 86.2549 174.568 86.6723C174.711 87.0897 174.927 87.4442 175.216 87.7359C175.51 88.0284 175.861 88.2611 176.268 88.4341C176.682 88.6026 177.121 88.718 177.586 88.7804C177.893 88.8215 178.207 88.8449 178.529 88.8504C178.856 88.8567 179.178 88.846 179.494 88.8185C179.81 88.7909 180.119 88.749 180.423 88.6929C180.726 88.6367 181.007 88.5695 181.265 88.4911L180.995 90.5051C180.695 90.6155 180.381 90.7105 180.053 90.7903C179.73 90.8707 179.393 90.9332 179.043 90.9776C178.692 91.0221 178.321 91.0423 177.929 91.0381C177.536 91.0391 177.12 91.0102 176.681 90.9514ZM186.665 84.4614L185.119 85.8119L183.945 84.7018L185.218 83.0888L183.455 82.0369L184.152 80.5726L186.074 81.2826L186.536 79.2863L188.139 79.4932L188.056 81.5486L190.099 81.3626L190.395 82.952L188.423 83.5107L189.227 85.3944L187.807 86.1725L186.665 84.4614ZM194.683 93.399C193.985 93.3054 193.357 93.0947 192.798 92.7668C192.244 92.4449 191.787 92.0257 191.425 91.509C191.064 90.9924 190.809 90.3904 190.659 89.7031C190.509 89.0157 190.489 88.2623 190.599 87.443C190.709 86.6237 190.927 85.9022 191.252 85.2787C191.579 84.6499 191.982 84.1335 192.461 83.7297C192.946 83.3213 193.494 83.0315 194.103 82.8603C194.714 82.6839 195.362 82.6418 196.049 82.734C196.578 82.8049 197.07 82.949 197.525 83.1661C197.986 83.3839 198.393 83.678 198.747 84.0484C199.107 84.4141 199.408 84.8555 199.651 85.3723C199.899 85.8899 200.078 86.4816 200.187 87.1475L200.378 87.173C200.354 86.9492 200.318 86.7345 200.27 86.529C200.228 86.3189 200.184 86.13 200.136 85.9622C200.09 85.7891 200.045 85.6405 200.003 85.5164C199.965 85.393 199.937 85.3005 199.919 85.2388L200.468 81.1475L203.584 81.5656L201.924 93.9347L198.808 93.5166L199.095 91.3758C198.879 91.745 198.62 92.0708 198.318 92.3532C198.017 92.6356 197.679 92.8674 197.305 93.0486C196.932 93.2245 196.526 93.3422 196.087 93.4018C195.648 93.4666 195.18 93.4657 194.683 93.399ZM193.834 87.8771C193.769 88.3581 193.78 88.7981 193.867 89.1971C193.953 89.5962 194.1 89.9441 194.308 90.2411C194.521 90.5387 194.789 90.7819 195.114 90.9707C195.444 91.1603 195.817 91.2831 196.235 91.3391C196.594 91.3873 196.948 91.3783 197.296 91.3119C197.65 91.241 197.975 91.0991 198.273 90.8861C198.571 90.6732 198.825 90.3817 199.036 90.0118C199.252 89.6427 199.398 89.1832 199.471 88.6335C199.546 88.0784 199.527 87.597 199.415 87.1891C199.309 86.7767 199.14 86.4312 198.908 86.1525C198.677 85.8686 198.4 85.6459 198.078 85.4842C197.76 85.3232 197.422 85.2186 197.062 85.1704C196.645 85.1143 196.252 85.1343 195.884 85.2302C195.522 85.3215 195.199 85.4853 194.914 85.7216C194.635 85.9532 194.402 86.2502 194.213 86.6123C194.025 86.9744 193.898 87.396 193.834 87.8771ZM209.381 95.3711C208.409 95.2406 207.553 94.9994 206.815 94.6474C206.076 94.2954 205.471 93.851 205 93.3142C204.529 92.7721 204.196 92.1463 204.001 91.4367C203.811 90.7278 203.772 89.9504 203.886 89.1047C203.992 88.3118 204.215 87.6099 204.556 86.9991C204.901 86.3889 205.34 85.8881 205.871 85.4967C206.408 85.1059 207.034 84.8347 207.748 84.683C208.463 84.5261 209.244 84.5043 210.09 84.6178C210.941 84.732 211.691 84.9564 212.34 85.2911C212.99 85.6204 213.528 86.0209 213.955 86.4925C214.386 86.9647 214.695 87.4905 214.881 88.0697C215.067 88.6489 215.119 89.2424 215.038 89.8503C214.994 90.178 214.922 90.4751 214.821 90.7414C214.722 91.0025 214.623 91.2127 214.527 91.3719L206.78 90.3325C206.813 90.8104 206.926 91.2292 207.12 91.5889C207.314 91.9485 207.566 92.2567 207.876 92.5136C208.186 92.7651 208.542 92.9661 208.941 93.1166C209.341 93.2671 209.762 93.3721 210.206 93.4317C210.561 93.4792 210.907 93.5041 211.246 93.5065C211.59 93.5096 211.919 93.5 212.234 93.4777C212.555 93.4509 212.865 93.4117 213.162 93.3601C213.46 93.3085 213.742 93.2522 214.008 93.1911L213.765 95.0068C213.395 95.1133 213.031 95.2016 212.672 95.2718C212.312 95.342 211.953 95.3934 211.594 95.4258C211.239 95.459 210.877 95.4697 210.508 95.4577C210.143 95.4518 209.767 95.4229 209.381 95.3711ZM206.751 88.682L212.333 89.431C212.349 89.0348 212.304 88.6709 212.197 88.3392C212.092 88.0022 211.932 87.7063 211.719 87.4517C211.506 87.1971 211.243 86.9896 210.931 86.8294C210.619 86.6638 210.271 86.5551 209.885 86.5034C209.488 86.4502 209.118 86.4624 208.774 86.54C208.431 86.6123 208.125 86.7435 207.858 86.9336C207.59 87.1237 207.361 87.3674 207.17 87.6647C206.986 87.9574 206.846 88.2965 206.751 88.682Z" fill="#320073"/>
<path d="M316.702 110.442L311.39 103.483L318.346 98.1713L315.617 94.5929L308.658 99.9044L303.347 92.9465L299.77 95.6789L305.08 102.636L298.124 107.948L300.856 111.525L307.812 106.213L313.121 113.171L316.702 110.442Z" fill="#F83B5A"/>
<path d="M57.4746 41.2576C57.0146 41.1959 56.5489 41.3195 56.18 41.6011C55.8111 41.8827 55.5692 42.2994 55.5074 42.7594L54.5766 49.6972L52.8421 49.4645C52.3821 49.4028 51.9164 49.5263 51.5475 49.808C51.1786 50.0896 50.9367 50.5062 50.8749 50.9662L49.4786 61.373C49.4206 61.8096 49.5292 62.252 49.783 62.612C50.0368 62.972 50.4169 63.223 50.8476 63.3151C43.497 72.9372 37.0446 75.0861 36.512 79.0557C35.1156 89.4624 42.8397 95.7958 51.7621 96.993C60.6845 98.1902 69.8048 94.1168 71.2011 83.7101C71.7337 79.7409 66.0753 75.9682 61.5212 64.7509C61.9616 64.7757 62.3951 64.6333 62.735 64.3522C63.0749 64.071 63.296 63.6719 63.3543 63.2347L64.7506 52.828C64.8123 52.368 64.6888 51.9023 64.4071 51.5334C64.1255 51.1645 63.7089 50.9225 63.2489 50.8608L61.5144 50.6281L62.4453 43.6903C62.507 43.2303 62.3834 42.7646 62.1018 42.3957C61.8202 42.0267 61.4035 41.7848 60.9435 41.7231L57.4746 41.2576ZM55.951 65.7728C56.9873 71.2089 64.496 81.0447 64.2633 82.7792C63.5651 87.9826 57.6598 92.4873 52.4602 91.7896C47.253 91.091 42.7516 85.1899 43.4498 79.9866C43.6825 78.2521 53.5184 70.7434 55.951 65.7728Z" fill="#F83B5A"/>
<rect x="262.853" y="133.441" width="350" height="96" rx="24" transform="rotate(-5.61475 262.853 133.441)" fill="#DFFF29"/>
<path d="M404.835 172.738L401.65 173.051L400.461 160.949L403.645 160.636L404.139 165.66L409.943 165.089L409.449 160.066L412.634 159.752L413.824 171.854L410.639 172.167L410.165 167.342L404.361 167.913L404.835 172.738ZM421.501 171.533C420.524 171.629 419.636 171.591 418.837 171.418C418.037 171.244 417.347 170.95 416.765 170.536C416.182 170.116 415.714 169.584 415.362 168.938C415.014 168.291 414.798 167.543 414.715 166.694C414.637 165.898 414.693 165.164 414.884 164.491C415.081 163.818 415.393 163.23 415.82 162.727C416.253 162.224 416.8 161.816 417.46 161.505C418.121 161.188 418.875 160.988 419.725 160.904C420.579 160.82 421.361 160.867 422.069 161.043C422.778 161.215 423.393 161.481 423.916 161.843C424.445 162.203 424.866 162.644 425.18 163.165C425.494 163.686 425.681 164.252 425.741 164.863C425.773 165.192 425.771 165.497 425.734 165.78C425.697 166.057 425.65 166.284 425.592 166.461L417.814 167.225C417.955 167.683 418.162 168.065 418.433 168.37C418.704 168.676 419.02 168.918 419.38 169.097C419.741 169.271 420.132 169.385 420.556 169.44C420.979 169.495 421.414 169.5 421.86 169.456C422.215 169.421 422.558 169.366 422.888 169.291C423.224 169.215 423.542 169.13 423.844 169.036C424.15 168.936 424.442 168.827 424.72 168.709C424.998 168.59 425.259 168.471 425.505 168.35L425.684 170.174C425.349 170.362 425.015 170.532 424.681 170.682C424.347 170.833 424.009 170.965 423.667 171.079C423.33 171.193 422.98 171.286 422.617 171.359C422.261 171.437 421.888 171.495 421.501 171.533ZM417.407 165.626L423.012 165.075C422.937 164.685 422.809 164.342 422.63 164.043C422.45 163.739 422.227 163.488 421.961 163.289C421.695 163.09 421.391 162.948 421.051 162.864C420.71 162.774 420.345 162.748 419.958 162.786C419.56 162.826 419.202 162.922 418.885 163.077C418.567 163.226 418.3 163.424 418.083 163.67C417.866 163.916 417.699 164.206 417.582 164.539C417.469 164.867 417.411 165.229 417.407 165.626ZM430.682 170.197L427.561 170.504L426.34 158.083L429.461 157.777L430.682 170.197ZM435.755 172.302L432.634 172.609L431.413 160.189L434.534 159.882L434.685 161.411C434.669 161.471 434.638 161.563 434.591 161.685C434.544 161.808 434.494 161.955 434.441 162.126C434.393 162.292 434.342 162.476 434.287 162.68C434.237 162.883 434.197 163.096 434.165 163.319L434.356 163.3C434.49 162.644 434.687 162.062 434.948 161.554C435.214 161.045 435.531 160.615 435.898 160.263C436.27 159.905 436.688 159.625 437.15 159.424C437.612 159.218 438.109 159.089 438.639 159.037C439.329 158.969 439.976 159.034 440.58 159.232C441.188 159.424 441.725 159.733 442.19 160.159C442.66 160.579 443.047 161.109 443.351 161.749C443.655 162.389 443.848 163.12 443.929 163.943C444.009 164.76 443.962 165.512 443.789 166.199C443.615 166.881 443.335 167.474 442.951 167.978C442.571 168.476 442.099 168.879 441.534 169.186C440.97 169.494 440.337 169.682 439.636 169.751C439.132 169.8 438.662 169.785 438.225 169.704C437.788 169.624 437.387 169.489 437.02 169.3C436.658 169.106 436.331 168.862 436.039 168.569C435.748 168.276 435.498 167.941 435.29 167.565L435.755 172.302ZM435.02 164.819C435.074 165.371 435.2 165.835 435.398 166.212C435.595 166.584 435.839 166.882 436.129 167.105C436.424 167.328 436.744 167.481 437.09 167.565C437.441 167.643 437.794 167.665 438.15 167.63C438.569 167.589 438.947 167.482 439.284 167.309C439.62 167.132 439.897 166.898 440.115 166.609C440.339 166.319 440.498 165.976 440.593 165.581C440.693 165.18 440.719 164.741 440.672 164.263C440.624 163.775 440.513 163.346 440.337 162.977C440.167 162.608 439.944 162.303 439.668 162.063C439.398 161.821 439.081 161.649 438.717 161.545C438.353 161.436 437.961 161.402 437.542 161.444C437.186 161.479 436.844 161.571 436.516 161.721C436.192 161.866 435.908 162.076 435.661 162.352C435.421 162.627 435.24 162.969 435.119 163.378C434.998 163.781 434.965 164.261 435.02 164.819ZM448.868 168.409L445.755 168.715L444.827 159.272C444.892 159.287 444.979 159.3 445.088 159.311C445.196 159.322 445.317 159.331 445.452 159.34C445.587 159.348 445.735 159.349 445.895 159.344C446.055 159.339 446.223 159.328 446.398 159.311C446.77 159.274 447.083 159.222 447.339 159.154C447.595 159.081 447.795 159.018 447.94 158.966L448.868 168.409ZM444.374 157.122C444.335 156.724 444.459 156.404 444.746 156.161C445.038 155.918 445.474 155.768 446.052 155.711C446.631 155.655 447.084 155.717 447.413 155.899C447.747 156.081 447.934 156.371 447.973 156.769C447.991 156.949 447.967 157.118 447.902 157.274C447.837 157.43 447.733 157.569 447.589 157.691C447.445 157.807 447.262 157.905 447.039 157.986C446.822 158.066 446.573 158.12 446.292 158.148C446.005 158.176 445.747 158.172 445.519 158.135C445.29 158.099 445.094 158.038 444.93 157.952C444.766 157.861 444.636 157.745 444.542 157.604C444.448 157.463 444.392 157.303 444.374 157.122ZM453.618 167.942L450.497 168.249L449.53 158.416L452.651 158.109L452.795 159.574C452.78 159.64 452.749 159.737 452.703 159.865C452.656 159.987 452.606 160.134 452.553 160.305C452.505 160.471 452.454 160.658 452.4 160.867C452.35 161.07 452.309 161.286 452.278 161.514L452.461 161.496C452.578 160.879 452.756 160.323 452.997 159.828C453.243 159.332 453.546 158.903 453.907 158.54C454.268 158.178 454.682 157.891 455.149 157.679C455.62 157.461 456.143 157.324 456.716 157.268C457.374 157.203 457.972 157.257 458.508 157.429C459.045 157.601 459.511 157.893 459.905 158.305C460.298 158.711 460.618 159.234 460.863 159.874C461.113 160.514 461.282 161.269 461.367 162.14L461.858 167.132L458.745 167.438L458.267 162.573C458.212 162.021 458.115 161.551 457.975 161.163C457.841 160.774 457.663 160.462 457.441 160.227C457.225 159.991 456.965 159.829 456.662 159.741C456.358 159.647 456.01 159.62 455.617 159.659C455.171 159.702 454.78 159.816 454.444 159.999C454.114 160.181 453.843 160.422 453.631 160.722C453.425 161.021 453.28 161.378 453.198 161.793C453.115 162.204 453.099 162.663 453.149 163.173L453.618 167.942ZM469.132 169.463C468.766 169.499 468.393 169.515 468.011 169.509C467.636 169.503 467.263 169.476 466.894 169.426C466.531 169.381 466.181 169.314 465.845 169.224C465.51 169.139 465.202 169.035 464.922 168.913L464.721 166.866C464.961 166.961 465.215 167.04 465.484 167.105C465.753 167.17 466.026 167.218 466.302 167.25C466.584 167.281 466.864 167.299 467.144 167.303C467.428 167.308 467.706 167.296 467.976 167.27C468.592 167.209 469.133 167.076 469.601 166.869C470.074 166.667 470.469 166.379 470.786 166.005C471.103 165.631 471.336 165.166 471.485 164.61C471.639 164.053 471.7 163.396 471.669 162.638C471.512 163.061 471.308 163.438 471.056 163.768C470.804 164.093 470.51 164.371 470.174 164.602C469.837 164.833 469.467 165.017 469.062 165.153C468.658 165.29 468.222 165.381 467.755 165.427C467.07 165.494 466.428 165.453 465.829 165.302C465.23 165.147 464.696 164.891 464.227 164.536C463.763 164.179 463.381 163.732 463.082 163.193C462.787 162.649 462.605 162.021 462.535 161.31C462.467 160.62 462.52 159.985 462.693 159.405C462.872 158.825 463.141 158.319 463.501 157.887C463.86 157.45 464.299 157.098 464.82 156.833C465.345 156.561 465.921 156.395 466.547 156.333C467.136 156.275 467.698 156.295 468.233 156.393C468.773 156.489 469.27 156.666 469.724 156.921C470.183 157.176 470.591 157.509 470.948 157.918C471.309 158.322 471.608 158.805 471.845 159.365L472.036 159.347C471.968 159.139 471.89 158.946 471.803 158.767C471.715 158.582 471.629 158.417 471.545 158.27C471.461 158.122 471.384 157.999 471.315 157.898C471.251 157.792 471.206 157.713 471.18 157.662L471.046 156.301L474.159 155.995L474.74 161.91C474.819 162.712 474.819 163.449 474.741 164.121C474.667 164.787 474.525 165.391 474.316 165.931C474.106 166.472 473.832 166.949 473.492 167.363C473.157 167.776 472.768 168.128 472.325 168.418C471.882 168.708 471.393 168.938 470.858 169.109C470.323 169.285 469.748 169.403 469.132 169.463ZM468.867 163.742C469.303 163.699 469.692 163.596 470.035 163.434C470.378 163.272 470.662 163.059 470.888 162.795C471.114 162.532 471.279 162.221 471.384 161.863C471.488 161.504 471.519 161.115 471.478 160.696C471.436 160.266 471.329 159.89 471.158 159.57C470.993 159.248 470.774 158.983 470.501 158.774C470.228 158.56 469.911 158.409 469.548 158.321C469.191 158.228 468.8 158.202 468.375 158.244C467.94 158.286 467.553 158.386 467.215 158.542C466.881 158.693 466.601 158.898 466.375 159.156C466.153 159.413 465.993 159.718 465.894 160.071C465.794 160.418 465.766 160.812 465.809 161.253C465.853 161.699 465.958 162.088 466.125 162.42C466.291 162.752 466.506 163.023 466.767 163.233C467.035 163.442 467.344 163.591 467.696 163.68C468.052 163.763 468.443 163.783 468.867 163.742ZM484.918 164.865L481.733 165.178L480.543 153.076L483.728 152.763L484.222 157.787L490.026 157.216L489.532 152.193L492.717 151.879L493.906 163.981L490.722 164.294L490.248 159.469L484.443 160.04L484.918 164.865ZM500.071 163.809C499.381 163.877 498.734 163.815 498.131 163.622C497.529 163.435 496.993 163.139 496.525 162.735C496.062 162.33 495.68 161.829 495.38 161.232C495.08 160.629 494.892 159.945 494.817 159.181C494.739 158.39 494.802 157.642 495.006 156.936C495.215 156.224 495.552 155.591 496.017 155.036C496.482 154.481 497.073 154.024 497.787 153.664C498.507 153.298 499.339 153.069 500.284 152.976C501.192 152.887 502.028 152.944 502.793 153.148C503.563 153.345 504.233 153.676 504.804 154.14C505.379 154.598 505.847 155.181 506.206 155.891C506.565 156.601 506.79 157.422 506.882 158.357L507.305 162.656L504.176 162.963L504.03 161.475C504.045 161.409 504.075 161.315 504.122 161.192C504.169 161.07 504.219 160.925 504.273 160.759C504.326 160.588 504.377 160.401 504.427 160.198C504.481 159.989 504.522 159.776 504.549 159.559L504.358 159.577C504.23 160.238 504.032 160.821 503.766 161.324C503.504 161.821 503.186 162.246 502.814 162.599C502.446 162.951 502.029 163.228 501.561 163.43C501.098 163.63 500.602 163.757 500.071 163.809ZM498.042 158.623C498.089 159.1 498.2 159.526 498.376 159.9C498.552 160.269 498.775 160.574 499.045 160.815C499.321 161.056 499.638 161.231 499.997 161.341C500.361 161.444 500.755 161.475 501.18 161.433C501.535 161.398 501.875 161.309 502.198 161.164C502.527 161.014 502.811 160.801 503.052 160.526C503.293 160.25 503.474 159.911 503.595 159.508C503.721 159.099 503.757 158.618 503.703 158.066C503.648 157.509 503.519 157.045 503.316 156.673C503.119 156.296 502.875 155.996 502.585 155.773C502.295 155.549 501.975 155.399 501.624 155.32C501.278 155.237 500.927 155.212 500.572 155.247C500.147 155.289 499.767 155.399 499.43 155.576C499.099 155.748 498.822 155.979 498.598 156.269C498.38 156.558 498.221 156.904 498.121 157.305C498.021 157.7 497.994 158.14 498.042 158.623ZM511.992 162.203L508.871 162.51L507.905 152.677L511.026 152.37L511.17 153.835C511.155 153.901 511.124 153.998 511.078 154.126C511.031 154.248 510.981 154.395 510.928 154.567C510.88 154.732 510.829 154.919 510.774 155.128C510.725 155.331 510.684 155.547 510.653 155.775L510.836 155.757C510.952 155.14 511.131 154.584 511.372 154.089C511.618 153.593 511.921 153.164 512.282 152.802C512.643 152.439 513.057 152.152 513.524 151.94C513.995 151.722 514.518 151.585 515.091 151.529C515.749 151.464 516.347 151.518 516.883 151.69C517.42 151.862 517.886 152.154 518.28 152.566C518.673 152.972 518.993 153.495 519.238 154.135C519.488 154.775 519.656 155.531 519.742 156.401L520.233 161.393L517.12 161.699L516.641 156.834C516.587 156.282 516.49 155.812 516.35 155.424C516.215 155.035 516.037 154.723 515.816 154.488C515.6 154.252 515.34 154.09 515.037 154.002C514.733 153.908 514.384 153.881 513.992 153.92C513.546 153.964 513.155 154.077 512.819 154.26C512.489 154.443 512.218 154.684 512.006 154.983C511.8 155.282 511.655 155.639 511.573 156.055C511.49 156.465 511.473 156.924 511.524 157.434L511.992 162.203ZM526.275 161.233C525.575 161.302 524.915 161.241 524.296 161.05C523.683 160.864 523.141 160.56 522.671 160.14C522.201 159.72 521.814 159.193 521.511 158.558C521.207 157.924 521.015 157.195 520.934 156.372C520.853 155.55 520.9 154.797 521.074 154.116C521.248 153.429 521.521 152.834 521.895 152.331C522.274 151.822 522.74 151.414 523.294 151.108C523.848 150.796 524.47 150.607 525.16 150.539C525.691 150.487 526.202 150.514 526.695 150.621C527.193 150.727 527.657 150.92 528.086 151.2C528.521 151.473 528.915 151.834 529.27 152.281C529.63 152.728 529.94 153.263 530.199 153.886L530.39 153.867C530.316 153.655 530.232 153.454 530.138 153.265C530.05 153.07 529.963 152.896 529.878 152.744C529.793 152.586 529.715 152.452 529.646 152.341C529.581 152.229 529.533 152.145 529.5 152.09L529.096 147.981L532.225 147.674L533.446 160.094L530.317 160.401L530.106 158.252C529.98 158.661 529.803 159.037 529.574 159.381C529.345 159.725 529.07 160.028 528.747 160.291C528.424 160.547 528.056 160.755 527.643 160.914C527.23 161.077 526.774 161.184 526.275 161.233ZM524.183 156.053C524.23 156.536 524.342 156.962 524.517 157.33C524.693 157.699 524.916 158.004 525.186 158.245C525.461 158.486 525.779 158.661 526.138 158.771C526.502 158.879 526.894 158.913 527.313 158.872C527.674 158.837 528.017 158.747 528.34 158.602C528.668 158.452 528.953 158.239 529.194 157.964C529.434 157.688 529.615 157.346 529.736 156.938C529.862 156.529 529.898 156.048 529.843 155.496C529.788 154.939 529.66 154.475 529.457 154.103C529.259 153.726 529.016 153.429 528.726 153.211C528.436 152.987 528.116 152.834 527.765 152.751C527.419 152.667 527.065 152.642 526.704 152.678C526.285 152.719 525.907 152.829 525.571 153.006C525.24 153.178 524.963 153.412 524.74 153.707C524.522 153.996 524.362 154.339 524.262 154.735C524.162 155.13 524.135 155.57 524.183 156.053Z" fill="#320073"/>
<path d="M578.525 156.765L571.759 151.209L577.311 144.444L573.835 141.587L568.279 148.352L561.514 142.798L558.659 146.278L565.422 151.832L559.87 158.598L563.35 161.453L568.902 154.687L575.665 160.242L578.525 156.765Z" fill="#320073"/>
<path d="M349.043 191.368C352.971 185.792 354.76 178.988 354.083 172.201C353.426 165.412 350.346 159.086 345.407 154.382L334.478 167.69C335.893 169.384 336.833 171.508 337.065 173.874C337.298 176.239 336.79 178.506 335.732 180.443L349.043 191.368ZM346.327 194.676C341.623 199.615 335.297 202.695 328.508 203.352C321.721 204.03 314.917 202.24 309.341 198.312L320.266 185.001C322.203 186.06 324.47 186.567 326.835 186.334C329.201 186.102 331.325 185.163 333.019 183.748L346.327 194.676ZM306.033 195.596L316.961 182.288C315.499 180.533 314.598 178.378 314.375 176.105C314.142 173.739 314.65 171.475 315.708 169.536L302.396 158.608C298.468 164.184 296.678 170.99 297.357 177.778C298.014 184.567 301.094 190.892 306.033 195.596ZM324.604 163.644C322.239 163.876 320.118 164.815 318.421 166.231L305.11 155.302C309.815 150.363 316.141 147.283 322.931 146.626C329.718 145.949 336.522 147.738 342.098 151.666L331.173 164.977C329.167 163.884 326.878 163.42 324.604 163.644Z" fill="#320073"/>
<rect x="500.544" y="2.19691" width="350" height="96" rx="24" transform="rotate(10.0123 500.544 2.19691)" fill="white" fill-opacity="0.35"/>
<path d="M560.212 74.9494L537.936 71.0167C536.97 70.8461 536.13 71.0045 535.416 71.4919C534.701 71.9794 534.212 72.5961 533.948 73.3421C533.685 74.0686 533.659 74.8419 533.87 75.662C534.081 76.4821 534.627 77.1455 535.51 77.6522L553.499 88.7056C553.969 88.9874 554.456 89.1506 554.958 89.1952C555.466 89.2382 555.938 89.1448 556.373 88.915C556.809 88.6851 557.191 88.3747 557.521 87.9837C557.85 87.5904 558.062 87.1272 558.156 86.5941L560.212 74.9494ZM548.028 30.8895C550.975 31.4097 553.311 32.9032 555.037 35.37C556.764 37.8368 557.367 40.5434 556.847 43.4896C556.327 46.4359 554.833 48.7723 552.366 50.4988C549.9 52.2253 547.193 52.8284 544.247 52.3083C541.301 51.7881 538.964 50.2946 537.238 47.8278C535.511 45.361 534.908 42.6545 535.428 39.7082C535.948 36.7619 537.442 34.4255 539.909 32.699C542.375 30.9725 545.082 30.3694 548.028 30.8895ZM574.931 62.8238C576.059 63.0229 576.963 63.5777 577.644 64.4881C578.325 65.3986 578.566 66.4226 578.365 67.5601C578.195 68.5192 577.779 69.3083 577.115 69.9273C576.451 70.5463 575.638 70.9267 574.675 71.0684L564.412 72.0099L538.567 67.4469C536.591 67.0982 534.792 67.4921 533.168 68.6288C531.543 69.7678 530.557 71.3237 530.209 73.2966C529.995 74.5056 530.167 75.6648 530.725 76.7743C531.282 77.8838 532.048 78.8129 533.023 79.5617L536.724 81.8458L517.544 78.4596L519.434 67.7502C520.136 63.7734 522.118 60.6435 525.38 58.3605C528.64 56.0794 532.258 55.2899 536.234 55.992L574.931 62.8238Z" fill="#29FF86"/>
<path d="M629.804 78.8371L626.652 78.2808L628.36 68.6064L624.264 67.8831L624.67 65.5827L636.022 67.5869L635.616 69.8874L631.512 69.1627L629.804 78.8371ZM638.157 80.3119L635.069 79.7667L637.238 67.4767L640.327 68.022L639.619 72.0319C639.587 72.0913 639.531 72.1762 639.452 72.2868C639.374 72.3922 639.286 72.5202 639.189 72.671C639.098 72.8174 638.998 72.9839 638.89 73.1705C638.787 73.3528 638.69 73.5496 638.599 73.7609L638.78 73.7929C639.058 73.23 639.382 72.743 639.753 72.3318C640.123 71.9206 640.528 71.5887 640.968 71.336C641.414 71.0842 641.89 70.9191 642.396 70.8407C642.909 70.7579 643.449 70.7666 644.016 70.8667C644.668 70.9817 645.228 71.1945 645.699 71.505C646.17 71.8155 646.539 72.222 646.808 72.7244C647.078 73.2215 647.244 73.8115 647.308 74.4942C647.377 75.178 647.335 75.9505 647.183 76.8118L646.311 81.7514L643.231 81.2076L644.08 76.3941C644.177 75.8478 644.21 75.369 644.18 74.9574C644.155 74.5468 644.067 74.1983 643.917 73.9119C643.773 73.6264 643.566 73.4004 643.298 73.2339C643.03 73.0621 642.702 72.9419 642.314 72.8733C641.872 72.7954 641.465 72.7994 641.093 72.8852C640.726 72.972 640.4 73.1311 640.115 73.3625C639.836 73.5948 639.6 73.8999 639.409 74.2777C639.219 74.6503 639.079 75.0887 638.99 75.5929L638.157 80.3119ZM653.637 83.4835C652.67 83.3129 651.826 83.0365 651.102 82.6542C650.379 82.272 649.793 81.803 649.344 81.2471C648.896 80.6861 648.589 80.047 648.424 79.3299C648.263 78.6137 648.257 77.8355 648.405 76.9951C648.544 76.2073 648.796 75.5153 649.162 74.919C649.532 74.3237 649.991 73.8415 650.538 73.4723C651.091 73.1041 651.727 72.859 652.447 72.737C653.168 72.6098 653.949 72.6203 654.789 72.7687C655.635 72.918 656.375 73.1732 657.01 73.5344C657.646 73.8904 658.167 74.3128 658.573 74.8016C658.985 75.2913 659.272 75.8293 659.434 76.4157C659.596 77.0021 659.623 77.5973 659.517 78.2013C659.459 78.527 659.375 78.8208 659.264 79.0827C659.153 79.3395 659.047 79.5454 658.943 79.7005L651.246 78.3416C651.259 78.8205 651.355 79.2436 651.534 79.6109C651.713 79.9783 651.952 80.2967 652.251 80.5661C652.551 80.8303 652.897 81.0458 653.29 81.2127C653.683 81.3795 654.1 81.5019 654.542 81.5798C654.893 81.6419 655.239 81.6812 655.577 81.6976C655.92 81.7149 656.25 81.719 656.566 81.7097C656.888 81.6961 657.198 81.6698 657.498 81.6305C657.797 81.5913 658.081 81.5467 658.35 81.4967L658.032 83.3008C657.658 83.3919 657.29 83.4651 656.929 83.5204C656.567 83.5756 656.206 83.6121 655.845 83.6296C655.49 83.6482 655.128 83.6438 654.759 83.6166C654.394 83.5956 654.02 83.5512 653.637 83.4835ZM651.286 76.6913L656.832 77.6705C656.864 77.2754 656.834 76.9099 656.741 76.574C656.65 76.2329 656.503 75.9308 656.3 75.6675C656.098 75.4043 655.844 75.1861 655.538 75.0131C655.234 74.8348 654.89 74.7118 654.507 74.6441C654.113 74.5746 653.743 74.5715 653.396 74.6348C653.05 74.6929 652.739 74.8113 652.464 74.9902C652.188 75.169 651.949 75.4031 651.747 75.6922C651.55 75.9771 651.397 76.3101 651.286 76.6913ZM662.807 84.6638L659.719 84.1186L661.436 74.389L664.525 74.9343L664.311 76.1475C664.269 76.1997 664.208 76.2811 664.129 76.3917C664.055 76.5032 663.969 76.6423 663.869 76.8088C663.775 76.971 663.671 77.1611 663.557 77.3792C663.449 77.593 663.341 77.8366 663.233 78.11L663.422 78.1434C663.67 77.5697 663.944 77.0712 664.247 76.648C664.549 76.2248 664.885 75.8834 665.256 75.6239C665.633 75.3601 666.046 75.1839 666.495 75.0952C666.945 75.0013 667.437 75.0017 667.973 75.0963C668.215 75.1389 668.437 75.1998 668.639 75.2789C668.848 75.3537 669.05 75.4407 669.243 75.5399L668.481 77.9723C668.297 77.8802 668.106 77.8087 667.909 77.7577C667.714 77.7015 667.526 77.6576 667.348 77.6261C666.77 77.5241 666.261 77.5372 665.822 77.6653C665.383 77.7883 665.004 78.003 664.684 78.3094C664.366 78.6106 664.107 78.99 663.907 79.4475C663.708 79.8998 663.559 80.4043 663.461 80.9611L662.807 84.6638ZM672.389 86.7942C671.707 86.6737 671.101 86.4394 670.572 86.0915C670.042 85.7489 669.606 85.3198 669.264 84.8045C668.927 84.2901 668.694 83.7047 668.566 83.0485C668.439 82.387 668.443 81.6781 668.576 80.9218C668.714 80.1393 668.977 79.4355 669.363 78.8105C669.756 78.1812 670.251 77.6621 670.849 77.253C671.446 76.844 672.138 76.5626 672.923 76.4088C673.715 76.2507 674.578 76.2542 675.513 76.4192C676.411 76.5778 677.201 76.8581 677.883 77.2601C678.571 77.6577 679.127 78.1567 679.552 78.7571C679.983 79.3531 680.275 80.0411 680.43 80.8212C680.585 81.6013 680.581 82.4536 680.418 83.378L679.666 87.6322L676.57 87.0856L676.83 85.6123C676.863 85.553 676.918 85.4707 676.996 85.3653C677.074 85.26 677.161 85.1346 677.257 84.9891C677.354 84.8383 677.454 84.6718 677.557 84.4895C677.665 84.3029 677.762 84.1087 677.846 83.907L677.657 83.8736C677.356 84.4757 677.009 84.9832 676.617 85.3959C676.231 85.8043 675.811 86.1282 675.357 86.3676C674.908 86.6079 674.431 86.7621 673.926 86.83C673.427 86.8989 672.915 86.8869 672.389 86.7942ZM671.832 81.253C671.749 81.7257 671.741 82.1658 671.81 82.5733C671.88 82.9755 672.013 83.3293 672.208 83.6345C672.408 83.9407 672.667 84.1949 672.983 84.3969C673.306 84.5947 673.677 84.7307 674.097 84.8048C674.449 84.867 674.8 84.8721 675.151 84.8202C675.507 84.764 675.838 84.6357 676.145 84.4352C676.451 84.2347 676.717 83.9567 676.942 83.6011C677.173 83.2412 677.337 82.7881 677.434 82.2419C677.531 81.6904 677.532 81.2086 677.437 80.7964C677.348 80.38 677.194 80.0251 676.975 79.7319C676.756 79.4387 676.488 79.2073 676.171 79.0376C675.861 78.8637 675.53 78.7456 675.178 78.6835C674.758 78.6093 674.362 78.6125 673.99 78.6932C673.625 78.7694 673.295 78.9171 673.002 79.1361C672.714 79.3561 672.468 79.6457 672.264 80.005C672.06 80.359 671.917 80.775 671.832 81.253ZM683.852 91.0113L680.764 90.4661L682.934 78.1762L686.022 78.7214L685.755 80.234C685.724 80.2881 685.669 80.3678 685.591 80.4731C685.513 80.5785 685.425 80.7065 685.328 80.8573C685.237 81.0037 685.138 81.1676 685.03 81.349C684.927 81.5312 684.831 81.7254 684.74 81.9315L684.929 81.9648C685.235 81.3689 685.582 80.8615 685.97 80.4426C686.363 80.0246 686.784 79.6954 687.233 79.4551C687.688 79.2104 688.165 79.0537 688.664 78.9848C689.165 78.9107 689.678 78.92 690.203 79.0127C690.886 79.1333 691.491 79.3701 692.019 79.7233C692.553 80.0722 692.987 80.5143 693.32 81.0497C693.66 81.5809 693.89 82.1955 694.01 82.8938C694.131 83.592 694.119 84.3482 693.975 85.1622C693.832 85.9711 693.585 86.6829 693.233 87.2977C692.881 87.9072 692.453 88.4029 691.946 88.7847C691.447 89.1622 690.883 89.4229 690.257 89.5669C689.63 89.7108 688.97 89.7215 688.277 89.5991C687.778 89.5111 687.329 89.3695 686.93 89.1745C686.531 88.9796 686.181 88.7416 685.878 88.4608C685.582 88.1756 685.333 87.8527 685.131 87.4922C684.93 87.1316 684.779 86.7422 684.68 86.3238L683.852 91.0113ZM685.159 83.6059C685.063 84.1521 685.059 84.6334 685.148 85.0499C685.238 85.4611 685.393 85.8133 685.612 86.1066C685.836 86.4007 686.103 86.6347 686.414 86.8087C686.73 86.9783 687.065 87.0942 687.417 87.1564C687.831 87.2296 688.224 87.2286 688.595 87.1532C688.967 87.0726 689.297 86.9223 689.585 86.7024C689.878 86.4833 690.123 86.1963 690.321 85.8414C690.526 85.4821 690.67 85.0661 690.753 84.5934C690.838 84.1102 690.846 83.6675 690.776 83.2652C690.712 82.8639 690.579 82.5101 690.379 82.2039C690.183 81.8987 689.925 81.6472 689.602 81.4494C689.28 81.2464 688.912 81.1083 688.497 81.035C688.145 80.9729 687.791 80.9699 687.435 81.0261C687.084 81.078 686.753 81.2037 686.442 81.4033C686.136 81.6038 685.87 81.8844 685.643 82.2453C685.418 82.6009 685.257 83.0544 685.159 83.6059ZM698.007 93.9816L694.51 93.3641L697.221 89.6916L694.467 80.2125L697.737 80.7897L699.274 86.8533C699.302 87.0044 699.302 87.156 699.275 87.3084C699.249 87.4554 699.197 87.5952 699.12 87.7277L698.751 88.345L698.924 88.3756L703.299 81.7716L706.568 82.3488L698.007 93.9816Z" fill="white"/>
<path d="M798.264 109.693L793.245 102.52L800.414 97.5004L797.836 93.8122L790.663 98.8313L785.644 91.6597L781.957 94.2419L786.974 101.413L779.805 106.433L782.387 110.119L789.556 105.1L794.573 112.271L798.264 109.693Z" fill="#29FF86"/>
</g>
<defs>
<filter id="filter0_d_59_81" x="0" y="0" width="846.41" height="230.749" filterUnits="userSpaceOnUse" color-interpolation-filters="sRGB">
<feFlood flood-opacity="0" result="BackgroundImageFix"/>
<feColorMatrix in="SourceAlpha" type="matrix" values="0 0 0 0 0 0 0 0 0 0 0 0 0 0 0 0 0 0 127 0" result="hardAlpha"/>
<feOffset dy="-1"/>
<feGaussianBlur stdDeviation="2.5"/>
<feComposite in2="hardAlpha" operator="out"/>
<feColorMatrix type="matrix" values="0 0 0 0 1 0 0 0 0 1 0 0 0 0 1 0 0 0 0.25 0"/>
<feBlend mode="normal" in2="BackgroundImageFix" result="effect1_dropShadow_59_81"/>
<feBlend mode="normal" in="SourceGraphic" in2="effect1_dropShadow_59_81" result="shape"/>
</filter>
</defs>
</svg>
