<svg width="47" height="39" viewBox="0 0 47 39" fill="none" xmlns="http://www.w3.org/2000/svg">
<path fill-rule="evenodd" clip-rule="evenodd" d="M38.2654 29.2095L45.0337 35.9193L42.7705 38.165L6.53343 2.24575L8.79664 0L14.6468 5.79534C17.4764 4.75858 20.4695 4.22963 23.4862 4.23327C33.7518 4.23327 42.6423 10.2614 46.9723 19.0497C44.9797 23.1094 41.9847 26.6041 38.2654 29.2095ZM20.9753 12.0712L30.5256 21.5389C31.0021 20.2178 31.0903 18.7897 30.7801 17.4208C30.4698 16.0519 29.7738 14.7985 28.7731 13.8064C27.7723 12.8143 26.508 12.1244 25.1272 11.8168C23.7463 11.5092 22.3058 11.5967 20.9732 12.069L20.9753 12.0712ZM32.3277 32.3062C29.4973 33.3425 26.5034 33.8707 23.4862 33.8661C13.2206 33.8661 4.33 27.838 0 19.0497C1.99263 14.99 4.98764 11.4953 8.70696 8.88986L16.4467 16.5605C15.9703 17.8817 15.882 19.3097 16.1923 20.6786C16.5025 22.0475 17.1985 23.3009 18.1993 24.293C19.2 25.2851 20.4643 25.975 21.8452 26.2826C23.226 26.5902 24.6665 26.5027 25.9992 26.0304L32.3277 32.3041V32.3062Z" fill="#9029FF"/>
</svg>
