<svg width="45" height="37" viewBox="0 0 45 37" fill="none" xmlns="http://www.w3.org/2000/svg">
<path fill-rule="evenodd" clip-rule="evenodd" d="M36.4396 27.8159L42.885 34.2055L40.7298 36.3441L6.2217 2.1386L8.37693 0L13.948 5.51883C16.6425 4.53154 19.4929 4.02782 22.3656 4.03129C32.1414 4.03129 40.6078 9.77184 44.7312 18.1408C42.8336 22.0068 39.9815 25.3348 36.4396 27.8159ZM19.9745 11.4952L29.0692 20.5112C29.5229 19.2531 29.6069 17.8932 29.3115 16.5896C29.016 15.286 28.3532 14.0924 27.4002 13.1477C26.4473 12.2029 25.2432 11.5459 23.9283 11.253C22.6133 10.9601 21.2415 11.0434 19.9725 11.4932L19.9745 11.4952ZM30.7852 30.7648C28.0899 31.7516 25.2388 32.2547 22.3656 32.2503C12.5898 32.2503 4.1234 26.5098 0 18.1408C1.89756 14.2748 4.74966 10.9468 8.29153 8.46571L15.662 15.7704C15.2083 17.0285 15.1243 18.3884 15.4197 19.692C15.7152 20.9956 16.3779 22.1892 17.3309 23.1339C18.2839 24.0787 19.4879 24.7357 20.8029 25.0286C22.1178 25.3215 23.4896 25.2382 24.7587 24.7884L30.7852 30.7628V30.7648Z" fill="black"/>
</svg>
